# xmcd
#
# Track frame offsets:
#	150
#	18515
#	37447
#	51485
#	65337
#	80704
#	92517
#	109801
#	127724
#	144769
#	157680
#	176500
#	193326
#
# Disc length: 2796 seconds
#
# Revision: 0
# Processed by: cddbd v1.4PL0 Copyright (c) Steve Scherf et al.
# Submitted via: dBpowerAMP V4.0
#
DISCID=ac0aea0d
DTITLE=The Lighthouse Trio - There Is Hope
DYEAR=2001
DGENRE=Gospel
TTITLE0=The Lighthouse
TTITLE1=The Blood Will Never Loose It's Power
TTITLE2=There'll Be A Payday
TTITLE3=Look At The Scars
TTITLE4=Let Me Fall
TTITLE5=We Need a Little Love
TTITLE6=There Is Hope
TTITLE7=Resurrection Morn
TTITLE8=He Looked Beyond My Fault
TTITLE9=I'd Rather Live For Him
TTITLE10=More Like You
TTITLE11=Strenghth of My Heart
TTITLE12=Christmas Bonus: Still of the Night
EXTD=
EXTT0=
EXTT1=
EXTT2=
EXTT3=
EXTT4=
EXTT5=
EXTT6=
EXTT7=
EXTT8=
EXTT9=
EXTT10=
EXTT11=
EXTT12=
PLAYORDER=
